<svg xmlns="http://www.w3.org/2000/svg" viewBox="0 0 400 300"><defs><linearGradient id="d" x1="0" y1="0" x2="1" y2="1"><stop offset="0" stop-color="#2c3a38"/><stop offset="1" stop-color="#0d1413"/></linearGradient></defs><rect width="400" height="300" fill="url(#d)"/><g transform="translate(70 40)"><path d="M0 60C0 20 20 0 45 0s45 20 45 60c0 25-8 40-15 40H15C8 100 0 85 0 60z" fill="#f6f2ea"/><rect x="38" y="100" width="14" height="14" fill="#9aa5a3"/><path d="M33 114h24M35 126h20M37 138h16M39 150h12M45 114v44" stroke="#c9d1cf" stroke-width="5" stroke-linecap="round" fill="none"/></g><g transform="translate(160 40)"><path d="M0 60C0 20 20 0 45 0s45 20 45 60c0 25-8 40-15 40H15C8 100 0 85 0 60z" fill="#f6f2ea"/><rect x="38" y="100" width="14" height="14" fill="#9aa5a3"/><path d="M33 114h24M35 126h20M37 138h16M39 150h12M45 114v44" stroke="#c9d1cf" stroke-width="5" stroke-linecap="round" fill="none"/></g><g transform="translate(250 40)"><path d="M0 60C0 20 20 0 45 0s45 20 45 60c0 25-8 40-15 40H15C8 100 0 85 0 60z" fill="#f6f2ea"/><rect x="38" y="100" width="14" height="14" fill="#9aa5a3"/><path d="M33 114h24M35 126h20M37 138h16M39 150h12M45 114v44" stroke="#c9d1cf" stroke-width="5" stroke-linecap="round" fill="none"/></g></svg>